<svg id="图层_1" data-name="图层 1" xmlns="http://www.w3.org/2000/svg" viewBox="0 0 1920 1080"><defs><style>.cls-1{fill:#4d5cf2;}.cls-2{opacity:0.28;}.cls-3{fill:#b8c2e7;}</style></defs><title>bg-TrustNasm</title><path class="cls-1" d="M.31.16V430.08S645.75,693.54,1174.47,718c525.22,24.33,835.49-8.11,1370.86-44.61S3759.52,453.26,3893.88,426V.16Z"/><g class="cls-2"><path class="cls-3" d="M203.1,503.8V489.56H159.42q19.46,6.87,40.87,14.24Z"/><path class="cls-3" d="M223.61,509.39v-5.93h24.56a5.25,5.25,0,0,1,3.56,1.52,4.61,4.61,0,0,1,1.53,3.56,5.28,5.28,0,0,1-1.53,3.56,4.59,4.59,0,0,1-3.56,1.53h-18.8v.07q14.7,5,30.13,10.08a24.46,24.46,0,0,0,1.89-1.68,18,18,0,0,0,5.77-13.39,18.25,18.25,0,0,0-5.77-13.39A17.94,17.94,0,0,0,248,489.56H209.37v17.35c4.69,1.6,9.42,3.22,14.24,4.85Z"/><path class="cls-3" d="M290.71,532.1a18.05,18.05,0,0,1-4.24-11.7V489.56H272.24V520.4a32.85,32.85,0,0,0,1,7.89q10.29,3.38,20.87,6.8A13.1,13.1,0,0,1,290.71,532.1Z"/><path class="cls-3" d="M321.55,542.09a30.77,30.77,0,0,0,8.3-21.69l.17-30.84H315.79V520.4a18.21,18.21,0,0,1-4.07,11.7,13.28,13.28,0,0,1-10.5,4.91,12.68,12.68,0,0,1-1.39-.07q10,3.24,20.32,6.51C320.62,543,321.09,542.58,321.55,542.09Z"/><path class="cls-3" d="M376,551.75A18.22,18.22,0,0,0,389.33,546a18,18,0,0,0,5.76-13.39,17.68,17.68,0,0,0-5.76-13.38A18,18,0,0,0,376,513.45H356.29a5.27,5.27,0,0,1-3.56-1.52,4.61,4.61,0,0,1-1.53-3.56,4.87,4.87,0,0,1,1.53-3.56,4.63,4.63,0,0,1,3.56-1.52h36.77V489.05H356.29a18.26,18.26,0,0,0-13.39,5.76,18,18,0,0,0-5.76,13.39,18.24,18.24,0,0,0,5.76,13.39,18,18,0,0,0,13.39,5.76H376a5.29,5.29,0,0,1,3.55,1.52,4.89,4.89,0,0,1,1.53,3.56A5.26,5.26,0,0,1,379.5,536a4.59,4.59,0,0,1-3.55,1.53H337.31v11.36l9.17,2.87Z"/><polygon class="cls-3" points="565.73 551.24 581.33 551.24 581.33 537.01 575.56 537.01 554.38 489.05 542.86 489.05 515.23 551.24 551.67 551.24 557.94 537.01 537.6 537.01 548.45 512.27 565.73 551.24"/><polygon class="cls-3" points="500.83 524.3 471.68 489.05 457.28 489.05 457.28 551.24 471.68 551.24 471.68 516.17 500.83 551.24 515.07 551.24 515.07 489.05 500.83 489.05 500.83 524.3"/><polygon class="cls-3" points="749.22 551.75 749.22 503.8 770.91 503.8 770.91 489.56 713.13 489.56 713.13 503.8 734.82 503.8 734.82 551.75 749.22 551.75"/><path class="cls-3" d="M829.2,522.1A18,18,0,0,0,835,508.71a18.25,18.25,0,0,0-5.77-13.39,17.94,17.94,0,0,0-13.38-5.76H777.18v61.85h14.24V503.46H816a5.29,5.29,0,0,1,3.56,1.52,4.63,4.63,0,0,1,1.52,3.56,5.31,5.31,0,0,1-1.52,3.56,4.62,4.62,0,0,1-3.56,1.53H797.18V532.1l18.13,19.65H834.8l-22.37-23.89h3.39A18.2,18.2,0,0,0,829.2,522.1Z"/><path class="cls-3" d="M868.86,551.24c8.13,0,14.74-3,20.5-9.15a30.77,30.77,0,0,0,8.3-21.69l.18-30.84H883.6V520.4a18.21,18.21,0,0,1-4.07,11.7A13.28,13.28,0,0,1,869,537a13,13,0,0,1-10.51-4.91,18.05,18.05,0,0,1-4.24-11.7V489.56H840.05V520.4a31.82,31.82,0,0,0,8.3,21.69A26.18,26.18,0,0,0,868.86,551.24Z"/><path class="cls-3" d="M962.74,489.05H924.1a18.28,18.28,0,0,0-13.39,5.76A18,18,0,0,0,905,508.2a18.28,18.28,0,0,0,5.76,13.39,18,18,0,0,0,13.39,5.76h19.66a5.33,5.33,0,0,1,3.56,1.52,4.92,4.92,0,0,1,1.52,3.56,5.29,5.29,0,0,1-1.52,3.56,4.62,4.62,0,0,1-3.56,1.53H905.12v14.23h38.64A18.2,18.2,0,0,0,957.14,546a18,18,0,0,0,5.77-13.39,17.69,17.69,0,0,0-5.77-13.38,18,18,0,0,0-13.38-5.77H924.1a5.27,5.27,0,0,1-3.56-1.52,4.63,4.63,0,0,1-1.52-3.56,4.86,4.86,0,0,1,1.52-3.56,4.63,4.63,0,0,1,3.56-1.52h36.77V489.05Z"/><polygon class="cls-3" points="1125.75 537.01 1105.41 537.01 1116.26 512.27 1133.54 551.24 1149.14 551.24 1149.14 537.01 1143.37 537.01 1122.19 489.05 1110.67 489.05 1083.05 551.24 1119.48 551.24 1125.75 537.01"/><polygon class="cls-3" points="1068.64 524.3 1039.49 489.05 1025.09 489.05 1025.09 551.24 1039.49 551.24 1039.49 516.17 1068.64 551.24 1082.88 551.24 1082.88 489.05 1068.64 489.05 1068.64 524.3"/><polygon class="cls-3" points="1317.03 551.75 1317.03 503.8 1338.72 503.8 1338.72 489.56 1280.94 489.56 1280.94 503.8 1302.63 503.8 1302.63 551.75 1317.03 551.75"/><path class="cls-3" d="M1397,522.1a18,18,0,0,0,5.76-13.39,18.28,18.28,0,0,0-5.76-13.39,18,18,0,0,0-13.39-5.76H1345v61.85h14.24V503.46h24.57a5.29,5.29,0,0,1,3.56,1.52,4.63,4.63,0,0,1,1.52,3.56,5.27,5.27,0,0,1-1.52,3.56,4.62,4.62,0,0,1-3.56,1.53H1365V532.1l18.13,19.65h19.49l-22.37-23.89h3.39A18.24,18.24,0,0,0,1397,522.1Z"/><path class="cls-3" d="M1436.67,551.24c8.13,0,14.74-3,20.5-9.15a30.73,30.73,0,0,0,8.31-21.69l.17-30.84h-14.24V520.4a18.2,18.2,0,0,1-4.06,11.7,13.31,13.31,0,0,1-10.51,4.91,13,13,0,0,1-10.51-4.91,18,18,0,0,1-4.23-11.7V489.56h-14.24V520.4a31.82,31.82,0,0,0,8.3,21.69A26.19,26.19,0,0,0,1436.67,551.24Z"/><path class="cls-3" d="M1530.55,489.05h-38.64a18.28,18.28,0,0,0-13.39,5.76,18,18,0,0,0-5.76,13.39,18.28,18.28,0,0,0,5.76,13.39,18,18,0,0,0,13.39,5.76h19.66a5.31,5.31,0,0,1,3.56,1.52,4.93,4.93,0,0,1,1.53,3.56,5.26,5.26,0,0,1-1.53,3.56,4.62,4.62,0,0,1-3.56,1.53h-38.64v14.23h38.64A18.24,18.24,0,0,0,1525,546a18,18,0,0,0,5.76-13.39,17.71,17.71,0,0,0-5.76-13.38,18,18,0,0,0-13.39-5.77h-19.66a5.27,5.27,0,0,1-3.56-1.52,4.63,4.63,0,0,1-1.52-3.56,4.9,4.9,0,0,1,1.52-3.56,4.65,4.65,0,0,1,3.56-1.52h36.77V489.05Z"/><polygon class="cls-3" points="1693.56 537.01 1673.23 537.01 1684.07 512.27 1701.36 551.24 1716.95 551.24 1716.95 537.01 1711.18 537.01 1690 489.05 1678.48 489.05 1650.86 551.24 1687.29 551.24 1693.56 537.01"/><polygon class="cls-3" points="1636.45 524.3 1607.31 489.05 1592.9 489.05 1592.9 551.24 1607.31 551.24 1607.31 516.17 1636.45 551.24 1650.69 551.24 1650.69 489.05 1636.45 489.05 1636.45 524.3"/><polygon class="cls-3" points="1884.85 551.75 1884.85 503.8 1906.54 503.8 1906.54 489.56 1848.75 489.56 1848.75 503.8 1870.44 503.8 1870.44 551.75 1884.85 551.75"/><path class="cls-3" d="M1964.83,522.1a18,18,0,0,0,5.76-13.39,18.24,18.24,0,0,0-5.76-13.39,18,18,0,0,0-13.39-5.76h-38.63v61.85H1927V503.46h24.57a5.27,5.27,0,0,1,3.56,1.52,4.6,4.6,0,0,1,1.52,3.56,5.27,5.27,0,0,1-1.52,3.56,4.61,4.61,0,0,1-3.56,1.53H1932.8V532.1l18.13,19.65h19.49l-22.37-23.89h3.39A18.24,18.24,0,0,0,1964.83,522.1Z"/><path class="cls-3" d="M-14.95,335.21h3.39a18.2,18.2,0,0,0,13.38-5.76,18,18,0,0,0,5.76-13.39,18.24,18.24,0,0,0-5.76-13.39,18,18,0,0,0-13.38-5.76H-50.2v61.85H-36V310.81H-11.4a5.25,5.25,0,0,1,3.56,1.52,4.61,4.61,0,0,1,1.53,3.56,5.28,5.28,0,0,1-1.53,3.56A4.59,4.59,0,0,1-11.4,321H-30.21v18.47l18.14,19.65H7.41Z"/><path class="cls-3" d="M12.67,296.91v30.84A31.82,31.82,0,0,0,21,349.44a26.17,26.17,0,0,0,20.5,9.15c8.14,0,14.75-3,20.51-9.15a30.77,30.77,0,0,0,8.3-21.69l.17-30.84H56.22v30.84a18.21,18.21,0,0,1-4.07,11.7,13.28,13.28,0,0,1-10.51,4.91,13,13,0,0,1-10.5-4.91,18.05,18.05,0,0,1-4.24-11.7V296.91Z"/><path class="cls-3" d="M96.72,334.7h19.65a5.29,5.29,0,0,1,3.56,1.52,4.89,4.89,0,0,1,1.53,3.56,5.26,5.26,0,0,1-1.53,3.56,4.59,4.59,0,0,1-3.56,1.53H77.74V359.1h38.63a18.23,18.23,0,0,0,13.39-5.76A18,18,0,0,0,135.52,340a17.68,17.68,0,0,0-5.76-13.38,18,18,0,0,0-13.39-5.77H96.72a5.27,5.27,0,0,1-3.56-1.52,4.61,4.61,0,0,1-1.53-3.56,4.87,4.87,0,0,1,1.53-3.56,4.64,4.64,0,0,1,3.56-1.53h36.77V296.4H96.72a18.26,18.26,0,0,0-13.39,5.76,18,18,0,0,0-5.76,13.39,18.24,18.24,0,0,0,5.76,13.39A18,18,0,0,0,96.72,334.7Z"/><polygon class="cls-3" points="306.16 358.59 321.76 358.59 321.76 344.36 315.99 344.36 294.81 296.4 283.28 296.4 255.66 358.59 292.1 358.59 298.37 344.36 278.03 344.36 288.88 319.62 306.16 358.59"/><polygon class="cls-3" points="241.26 331.65 212.11 296.4 197.71 296.4 197.71 358.59 212.11 358.59 212.11 323.52 241.26 358.59 255.49 358.59 255.49 296.4 241.26 296.4 241.26 331.65"/><polygon class="cls-3" points="475.25 359.1 489.65 359.1 489.65 311.14 511.34 311.14 511.34 296.91 453.56 296.91 453.56 311.14 475.25 311.14 475.25 359.1"/><path class="cls-3" d="M569.63,329.45a18,18,0,0,0,5.77-13.39,18.25,18.25,0,0,0-5.77-13.39,17.94,17.94,0,0,0-13.38-5.76H517.61v61.85h14.24V310.81h24.56a5.25,5.25,0,0,1,3.56,1.52,4.61,4.61,0,0,1,1.53,3.56,5.28,5.28,0,0,1-1.53,3.56,4.59,4.59,0,0,1-3.56,1.53h-18.8v18.47l18.13,19.65h19.49l-22.37-23.89h3.39A18.2,18.2,0,0,0,569.63,329.45Z"/><path class="cls-3" d="M580.48,296.91v30.84a31.82,31.82,0,0,0,8.3,21.69,26.18,26.18,0,0,0,20.51,9.15c8.13,0,14.74-3,20.5-9.15a30.77,30.77,0,0,0,8.3-21.69l.17-30.84H624v30.84a18.21,18.21,0,0,1-4.07,11.7,13.28,13.28,0,0,1-10.5,4.91A13,13,0,0,1,599,339.45a18.05,18.05,0,0,1-4.24-11.7V296.91Z"/><path class="cls-3" d="M664.53,334.7h19.66a5.33,5.33,0,0,1,3.56,1.52,4.92,4.92,0,0,1,1.52,3.56,5.29,5.29,0,0,1-1.52,3.56,4.62,4.62,0,0,1-3.56,1.53H645.55V359.1h38.64a18.22,18.22,0,0,0,13.38-5.76A18,18,0,0,0,703.33,340a17.68,17.68,0,0,0-5.76-13.38,18,18,0,0,0-13.38-5.77H664.53a5.27,5.27,0,0,1-3.56-1.52,4.61,4.61,0,0,1-1.53-3.56,4.87,4.87,0,0,1,1.53-3.56,4.64,4.64,0,0,1,3.56-1.53H701.3V296.4H664.53a18.26,18.26,0,0,0-13.39,5.76,18,18,0,0,0-5.76,13.39,18.28,18.28,0,0,0,5.76,13.39A18,18,0,0,0,664.53,334.7Z"/><polygon class="cls-3" points="866.18 344.36 845.84 344.36 856.69 319.62 873.97 358.59 889.57 358.59 889.57 344.36 883.8 344.36 862.62 296.4 851.1 296.4 823.48 358.59 859.91 358.59 866.18 344.36"/><polygon class="cls-3" points="779.92 323.52 809.07 358.59 823.3 358.59 823.3 296.4 809.07 296.4 809.07 331.65 779.92 296.4 765.52 296.4 765.52 358.59 779.92 358.59 779.92 323.52"/><polygon class="cls-3" points="1043.06 359.1 1057.46 359.1 1057.46 311.14 1079.15 311.14 1079.15 296.91 1021.37 296.91 1021.37 311.14 1043.06 311.14 1043.06 359.1"/><path class="cls-3" d="M1137.45,329.45a18,18,0,0,0,5.76-13.39,18.28,18.28,0,0,0-5.76-13.39,18,18,0,0,0-13.39-5.76h-38.64v61.85h14.24V310.81h24.57a5.29,5.29,0,0,1,3.56,1.52,4.63,4.63,0,0,1,1.52,3.56,5.31,5.31,0,0,1-1.52,3.56,4.62,4.62,0,0,1-3.56,1.53h-18.81v18.47l18.13,19.65H1143l-22.37-23.89h3.39A18.24,18.24,0,0,0,1137.45,329.45Z"/><path class="cls-3" d="M1148.29,296.91v30.84a31.82,31.82,0,0,0,8.3,21.69,26.18,26.18,0,0,0,20.51,9.15c8.13,0,14.74-3,20.5-9.15a30.77,30.77,0,0,0,8.31-21.69l.17-30.84h-14.24v30.84a18.21,18.21,0,0,1-4.07,11.7,13.28,13.28,0,0,1-10.5,4.91,13,13,0,0,1-10.51-4.91,18.05,18.05,0,0,1-4.24-11.7V296.91Z"/><path class="cls-3" d="M1232.34,334.7H1252a5.33,5.33,0,0,1,3.56,1.52,4.92,4.92,0,0,1,1.52,3.56,5.29,5.29,0,0,1-1.52,3.56,4.62,4.62,0,0,1-3.56,1.53h-38.64V359.1H1252a18.2,18.2,0,0,0,13.38-5.76,18,18,0,0,0,5.77-13.39,17.69,17.69,0,0,0-5.77-13.38A18,18,0,0,0,1252,320.8h-19.66a5.27,5.27,0,0,1-3.56-1.52,4.63,4.63,0,0,1-1.52-3.56,4.9,4.9,0,0,1,1.52-3.56,4.64,4.64,0,0,1,3.56-1.53h36.77V296.4h-36.77a18.28,18.28,0,0,0-13.39,5.76,18,18,0,0,0-5.76,13.39,18.28,18.28,0,0,0,5.76,13.39A18,18,0,0,0,1232.34,334.7Z"/><polygon class="cls-3" points="1433.99 344.36 1413.65 344.36 1424.5 319.62 1441.79 358.59 1457.38 358.59 1457.38 344.36 1451.61 344.36 1430.43 296.4 1418.91 296.4 1391.29 358.59 1427.72 358.59 1433.99 344.36"/><polygon class="cls-3" points="1347.73 323.52 1376.88 358.59 1391.12 358.59 1391.12 296.4 1376.88 296.4 1376.88 331.65 1347.73 296.4 1333.33 296.4 1333.33 358.59 1347.73 358.59 1347.73 323.52"/><polygon class="cls-3" points="1610.87 359.1 1625.27 359.1 1625.27 311.14 1646.97 311.14 1646.97 296.91 1589.18 296.91 1589.18 311.14 1610.87 311.14 1610.87 359.1"/><path class="cls-3" d="M1705.26,329.45a18,18,0,0,0,5.76-13.39,18.24,18.24,0,0,0-5.76-13.39,18,18,0,0,0-13.39-5.76h-38.64v61.85h14.24V310.81H1692a5.27,5.27,0,0,1,3.56,1.52,4.63,4.63,0,0,1,1.52,3.56,5.27,5.27,0,0,1-1.52,3.56A4.61,4.61,0,0,1,1692,321h-18.81v18.47l18.13,19.65h19.49l-22.37-23.89h3.39A18.24,18.24,0,0,0,1705.26,329.45Z"/><path class="cls-3" d="M1716.1,296.91v30.84a31.82,31.82,0,0,0,8.3,21.69,26.21,26.21,0,0,0,20.51,9.15c8.13,0,14.74-3,20.5-9.15a30.73,30.73,0,0,0,8.31-21.69l.17-30.84h-14.24v30.84a18.2,18.2,0,0,1-4.06,11.7,13.3,13.3,0,0,1-10.51,4.91,13,13,0,0,1-10.51-4.91,18,18,0,0,1-4.23-11.7V296.91Z"/><path class="cls-3" d="M1800.15,334.7h19.66a5.31,5.31,0,0,1,3.56,1.52,4.89,4.89,0,0,1,1.53,3.56,5.26,5.26,0,0,1-1.53,3.56,4.61,4.61,0,0,1-3.56,1.53h-38.64V359.1h38.64a18.24,18.24,0,0,0,13.39-5.76A18,18,0,0,0,1839,340a17.71,17.71,0,0,0-5.76-13.38,18,18,0,0,0-13.39-5.77h-19.66a5.29,5.29,0,0,1-3.56-1.52,4.63,4.63,0,0,1-1.52-3.56,4.9,4.9,0,0,1,1.52-3.56,4.66,4.66,0,0,1,3.56-1.53h36.77V296.4h-36.77a18.24,18.24,0,0,0-13.38,5.76,18,18,0,0,0-5.77,13.39,18.25,18.25,0,0,0,5.77,13.39A18,18,0,0,0,1800.15,334.7Z"/><polygon class="cls-3" points="1915.55 323.52 1944.69 358.59 1958.93 358.59 1958.93 296.4 1944.69 296.4 1944.69 331.65 1915.55 296.4 1901.14 296.4 1901.14 358.59 1915.55 358.59 1915.55 323.52"/><polygon class="cls-3" points="-9.88 169.96 -30.21 169.96 -19.37 145.22 -2.08 184.19 13.52 184.19 13.52 169.96 7.75 169.96 -13.43 122 -24.96 122 -52.58 184.19 -16.14 184.19 -9.88 169.96"/><polygon class="cls-3" points="167.01 184.7 181.41 184.7 181.41 136.75 203.1 136.75 203.1 122.51 145.31 122.51 145.31 136.75 167.01 136.75 167.01 184.7"/><path class="cls-3" d="M223.6,168.6V136.41h24.57a5.25,5.25,0,0,1,3.56,1.52,4.61,4.61,0,0,1,1.53,3.56,5.28,5.28,0,0,1-1.53,3.56,4.59,4.59,0,0,1-3.56,1.53h-18.8v18.47L247.5,184.7H267l-22.36-23.89H248a18.2,18.2,0,0,0,13.38-5.76,18,18,0,0,0,5.76-13.39,18.24,18.24,0,0,0-5.76-13.39A18,18,0,0,0,248,122.51H209.37v61.85H223.6Z"/><path class="cls-3" d="M301,184.19c8.14,0,14.75-3.05,20.51-9.15a30.77,30.77,0,0,0,8.3-21.69l.17-30.84H315.79v30.84a18.21,18.21,0,0,1-4.07,11.7A13.28,13.28,0,0,1,301.21,170a13,13,0,0,1-10.5-4.91,18.05,18.05,0,0,1-4.24-11.7V122.51H272.24v30.84a31.82,31.82,0,0,0,8.3,21.69A26.17,26.17,0,0,0,301,184.19Z"/><path class="cls-3" d="M356.29,160.3H376a5.29,5.29,0,0,1,3.55,1.52,4.89,4.89,0,0,1,1.53,3.56,5.26,5.26,0,0,1-1.53,3.56,4.59,4.59,0,0,1-3.55,1.53H337.31V184.7H376a18.22,18.22,0,0,0,13.38-5.76,18,18,0,0,0,5.76-13.39,17.68,17.68,0,0,0-5.76-13.38A18,18,0,0,0,376,146.4H356.29a5.27,5.27,0,0,1-3.56-1.52,4.61,4.61,0,0,1-1.53-3.56,4.87,4.87,0,0,1,1.53-3.56,4.63,4.63,0,0,1,3.56-1.52h36.77V122H356.29a18.26,18.26,0,0,0-13.39,5.76,18,18,0,0,0-5.76,13.39,18.24,18.24,0,0,0,5.76,13.39A18,18,0,0,0,356.29,160.3Z"/><polygon class="cls-3" points="557.94 169.96 537.6 169.96 548.45 145.22 565.73 184.19 581.33 184.19 581.33 169.96 575.56 169.96 554.38 122 542.86 122 515.23 184.19 551.67 184.19 557.94 169.96"/><polygon class="cls-3" points="471.68 149.12 500.83 184.19 515.06 184.19 515.06 122 500.83 122 500.83 157.25 471.68 122 457.28 122 457.28 184.19 471.68 184.19 471.68 149.12"/><polygon class="cls-3" points="734.82 184.7 749.22 184.7 749.22 136.75 770.91 136.75 770.91 122.51 713.13 122.51 713.13 136.75 734.82 136.75 734.82 184.7"/><path class="cls-3" d="M791.42,168.6V136.41H816a5.29,5.29,0,0,1,3.56,1.52,4.63,4.63,0,0,1,1.52,3.56,5.31,5.31,0,0,1-1.52,3.56,4.62,4.62,0,0,1-3.56,1.53H797.18v18.47l18.13,19.65H834.8l-22.37-23.89h3.39a18.2,18.2,0,0,0,13.38-5.76A18,18,0,0,0,835,141.66a18.25,18.25,0,0,0-5.77-13.39,17.94,17.94,0,0,0-13.38-5.76H777.18v61.85h14.24Z"/><path class="cls-3" d="M868.86,184.19c8.13,0,14.74-3.05,20.5-9.15a30.77,30.77,0,0,0,8.3-21.69l.18-30.84H883.6v30.84a18.21,18.21,0,0,1-4.07,11.7A13.28,13.28,0,0,1,869,170a13,13,0,0,1-10.51-4.91,18.05,18.05,0,0,1-4.24-11.7V122.51H840.05v30.84a31.82,31.82,0,0,0,8.3,21.69A26.18,26.18,0,0,0,868.86,184.19Z"/><path class="cls-3" d="M924.1,160.3h19.66a5.33,5.33,0,0,1,3.56,1.52,4.92,4.92,0,0,1,1.52,3.56,5.29,5.29,0,0,1-1.52,3.56,4.62,4.62,0,0,1-3.56,1.53H905.12V184.7h38.64a18.2,18.2,0,0,0,13.38-5.76,18,18,0,0,0,5.77-13.39,17.69,17.69,0,0,0-5.77-13.38,18,18,0,0,0-13.38-5.77H924.1a5.27,5.27,0,0,1-3.56-1.52,4.63,4.63,0,0,1-1.52-3.56,4.86,4.86,0,0,1,1.52-3.56,4.63,4.63,0,0,1,3.56-1.52h36.77V122H924.1a18.28,18.28,0,0,0-13.39,5.76A18,18,0,0,0,905,141.15a18.28,18.28,0,0,0,5.76,13.39A18,18,0,0,0,924.1,160.3Z"/><polygon class="cls-3" points="1125.75 169.96 1105.41 169.96 1116.26 145.22 1133.54 184.19 1149.14 184.19 1149.14 169.96 1143.37 169.96 1122.19 122 1110.67 122 1083.05 184.19 1119.48 184.19 1125.75 169.96"/><polygon class="cls-3" points="1039.49 149.12 1068.64 184.19 1082.88 184.19 1082.88 122 1068.64 122 1068.64 157.25 1039.49 122 1025.09 122 1025.09 184.19 1039.49 184.19 1039.49 149.12"/><polygon class="cls-3" points="1302.63 184.7 1317.03 184.7 1317.03 136.75 1338.72 136.75 1338.72 122.51 1280.94 122.51 1280.94 136.75 1302.63 136.75 1302.63 184.7"/><path class="cls-3" d="M1359.23,168.6V136.41h24.57a5.29,5.29,0,0,1,3.56,1.52,4.63,4.63,0,0,1,1.52,3.56,5.27,5.27,0,0,1-1.52,3.56,4.62,4.62,0,0,1-3.56,1.53H1365v18.47l18.13,19.65h19.49l-22.37-23.89h3.39a18.24,18.24,0,0,0,13.39-5.76,18,18,0,0,0,5.76-13.39,18.28,18.28,0,0,0-5.76-13.39,18,18,0,0,0-13.39-5.76H1345v61.85h14.24Z"/><path class="cls-3" d="M1436.67,184.19c8.13,0,14.74-3.05,20.5-9.15a30.73,30.73,0,0,0,8.31-21.69l.17-30.84h-14.24v30.84a18.2,18.2,0,0,1-4.06,11.7,13.31,13.31,0,0,1-10.51,4.91,13,13,0,0,1-10.51-4.91,18,18,0,0,1-4.23-11.7V122.51h-14.24v30.84a31.82,31.82,0,0,0,8.3,21.69A26.19,26.19,0,0,0,1436.67,184.19Z"/><path class="cls-3" d="M1491.91,160.3h19.66a5.31,5.31,0,0,1,3.56,1.52,4.93,4.93,0,0,1,1.53,3.56,5.26,5.26,0,0,1-1.53,3.56,4.62,4.62,0,0,1-3.56,1.53h-38.64V184.7h38.64a18.24,18.24,0,0,0,13.39-5.76,18,18,0,0,0,5.76-13.39,17.71,17.71,0,0,0-5.76-13.38,18,18,0,0,0-13.39-5.77h-19.66a5.27,5.27,0,0,1-3.56-1.52,4.63,4.63,0,0,1-1.52-3.56,4.9,4.9,0,0,1,1.52-3.56,4.65,4.65,0,0,1,3.56-1.52h36.77V122h-36.77a18.24,18.24,0,0,0-13.38,5.76,18,18,0,0,0-5.77,13.39,18.25,18.25,0,0,0,5.77,13.39A18,18,0,0,0,1491.91,160.3Z"/><polygon class="cls-3" points="1693.56 169.96 1673.23 169.96 1684.07 145.22 1701.36 184.19 1716.95 184.19 1716.95 169.96 1711.18 169.96 1690 122 1678.48 122 1650.86 184.19 1687.29 184.19 1693.56 169.96"/><polygon class="cls-3" points="1607.31 149.12 1636.45 184.19 1650.69 184.19 1650.69 122 1636.45 122 1636.45 157.25 1607.31 122 1592.9 122 1592.9 184.19 1607.31 184.19 1607.31 149.12"/><polygon class="cls-3" points="1870.44 184.7 1884.85 184.7 1884.85 136.75 1906.54 136.75 1906.54 122.51 1848.75 122.51 1848.75 136.75 1870.44 136.75 1870.44 184.7"/><path class="cls-3" d="M1927,168.6V136.41h24.57a5.27,5.27,0,0,1,3.56,1.52,4.6,4.6,0,0,1,1.52,3.56,5.27,5.27,0,0,1-1.52,3.56,4.61,4.61,0,0,1-3.56,1.53H1932.8v18.47l18.13,19.65h19.49l-22.37-23.89h3.39a18.24,18.24,0,0,0,13.39-5.76,18,18,0,0,0,5.76-13.39,18.24,18.24,0,0,0-5.76-13.39,18,18,0,0,0-13.39-5.76H1912.8v61.85H1927Z"/><polygon class="cls-3" points="391.17 503.29 391.17 503.29 412.87 503.29 412.87 551.24 427.1 551.24 427.1 503.29 448.79 503.29 448.79 489.05 393.04 489.05 393.04 503.29 391.17 503.29"/><polygon class="cls-3" points="994.91 551.24 994.91 503.29 1016.6 503.29 1016.6 489.05 960.85 489.05 960.85 503.29 958.99 503.29 958.99 503.29 980.68 503.29 980.68 551.24 994.91 551.24"/><polygon class="cls-3" points="1562.72 551.24 1562.72 503.29 1584.41 503.29 1584.41 489.05 1528.66 489.05 1528.66 503.29 1526.8 503.29 1526.8 503.29 1548.49 503.29 1548.49 551.24 1562.72 551.24"/><polygon class="cls-3" points="131.6 310.63 131.6 310.63 153.29 310.63 153.29 358.59 167.53 358.59 167.53 310.63 189.22 310.63 189.22 296.4 133.47 296.4 133.47 310.63 131.6 310.63"/><polygon class="cls-3" points="699.41 310.63 699.41 310.63 721.11 310.63 721.11 358.59 735.34 358.59 735.34 310.63 757.03 310.63 757.03 296.4 701.28 296.4 701.28 310.63 699.41 310.63"/><polygon class="cls-3" points="1267.23 310.63 1267.23 310.63 1288.92 310.63 1288.92 358.59 1303.15 358.59 1303.15 310.63 1324.84 310.63 1324.84 296.4 1269.09 296.4 1269.09 310.63 1267.23 310.63"/><polygon class="cls-3" points="1835.04 310.63 1835.04 310.63 1856.73 310.63 1856.73 358.59 1870.96 358.59 1870.96 310.63 1892.65 310.63 1892.65 296.4 1836.9 296.4 1836.9 310.63 1835.04 310.63"/><polygon class="cls-3" points="391.17 136.24 391.17 136.24 412.86 136.24 412.86 184.19 427.1 184.19 427.1 136.24 448.79 136.24 448.79 122 393.04 122 393.04 136.24 391.17 136.24"/><polygon class="cls-3" points="958.99 136.24 958.99 136.24 980.68 136.24 980.68 184.19 994.91 184.19 994.91 136.24 1016.6 136.24 1016.6 122 960.85 122 960.85 136.24 958.99 136.24"/><polygon class="cls-3" points="1526.8 136.24 1526.8 136.24 1548.49 136.24 1548.49 184.19 1562.72 184.19 1562.72 136.24 1584.41 136.24 1584.41 122 1528.66 122 1528.66 136.24 1526.8 136.24"/><path class="cls-3" d="M632.74,545.48a18,18,0,0,0,5.77-13.39,17.69,17.69,0,0,0-5.77-13.38A17.94,17.94,0,0,0,619.36,513H599.7a5.28,5.28,0,0,1-3.56-1.53,4.63,4.63,0,0,1-1.52-3.56,4.88,4.88,0,0,1,1.52-3.56,4.63,4.63,0,0,1,3.56-1.52h38.64V488.54H599.7a18.28,18.28,0,0,0-13.39,5.76,18,18,0,0,0-5.76,13.39,18.28,18.28,0,0,0,5.76,13.39,18,18,0,0,0,13.39,5.76h19.66a5.33,5.33,0,0,1,3.56,1.52,4.92,4.92,0,0,1,1.52,3.56,5.29,5.29,0,0,1-1.52,3.56,4.62,4.62,0,0,1-3.56,1.53H581.22v14.23h38.14A18.2,18.2,0,0,0,632.74,545.48Z"/><path class="cls-3" d="M1200.56,545.48a18,18,0,0,0,5.76-13.39,17.71,17.71,0,0,0-5.76-13.38,18,18,0,0,0-13.39-5.76h-19.66a5.28,5.28,0,0,1-3.56-1.53,4.63,4.63,0,0,1-1.52-3.56,4.92,4.92,0,0,1,1.52-3.56,4.65,4.65,0,0,1,3.56-1.52h38.64V488.54h-38.64a18.28,18.28,0,0,0-13.39,5.76,18,18,0,0,0-5.76,13.39,18.28,18.28,0,0,0,5.76,13.39,18,18,0,0,0,13.39,5.76h19.66a5.31,5.31,0,0,1,3.56,1.52,4.92,4.92,0,0,1,1.52,3.56,5.25,5.25,0,0,1-1.52,3.56,4.62,4.62,0,0,1-3.56,1.53H1149v14.23h38.14A18.24,18.24,0,0,0,1200.56,545.48Z"/><path class="cls-3" d="M1768.37,545.48a18,18,0,0,0,5.76-13.39,17.68,17.68,0,0,0-5.76-13.38A18,18,0,0,0,1755,513h-19.66a5.3,5.3,0,0,1-3.56-1.53,4.63,4.63,0,0,1-1.52-3.56,4.92,4.92,0,0,1,1.52-3.56,4.65,4.65,0,0,1,3.56-1.52H1774V488.54h-38.64a18.24,18.24,0,0,0-13.38,5.76,18,18,0,0,0-5.76,13.39,18.24,18.24,0,0,0,5.76,13.39,18,18,0,0,0,13.38,5.76H1755a5.31,5.31,0,0,1,3.56,1.52,4.89,4.89,0,0,1,1.53,3.56,5.26,5.26,0,0,1-1.53,3.56A4.61,4.61,0,0,1,1755,537h-38.13v14.23H1755A18.24,18.24,0,0,0,1768.37,545.48Z"/><path class="cls-3" d="M373.17,352.83a18,18,0,0,0,5.76-13.39,17.68,17.68,0,0,0-5.76-13.38,18,18,0,0,0-13.38-5.77H340.13a5.27,5.27,0,0,1-3.56-1.52,4.61,4.61,0,0,1-1.53-3.56,4.87,4.87,0,0,1,1.53-3.56,4.63,4.63,0,0,1,3.56-1.52h38.64V295.89H340.13a18.28,18.28,0,0,0-13.39,5.76A18,18,0,0,0,321,315a18.28,18.28,0,0,0,5.76,13.39,18,18,0,0,0,13.39,5.76h19.66a5.33,5.33,0,0,1,3.56,1.52,4.92,4.92,0,0,1,1.52,3.56,5.29,5.29,0,0,1-1.52,3.56,4.62,4.62,0,0,1-3.56,1.53H321.65v14.23h38.14A18.2,18.2,0,0,0,373.17,352.83Z"/><path class="cls-3" d="M941,352.83a18,18,0,0,0,5.77-13.39A17.69,17.69,0,0,0,941,326.06a18,18,0,0,0-13.38-5.77H907.94a5.27,5.27,0,0,1-3.56-1.52,4.63,4.63,0,0,1-1.52-3.56,4.86,4.86,0,0,1,1.52-3.56,4.63,4.63,0,0,1,3.56-1.52h38.64V295.89H907.94a18.28,18.28,0,0,0-13.39,5.76A18,18,0,0,0,888.79,315a18.28,18.28,0,0,0,5.76,13.39,18,18,0,0,0,13.39,5.76H927.6a5.33,5.33,0,0,1,3.56,1.52,4.92,4.92,0,0,1,1.52,3.56,5.29,5.29,0,0,1-1.52,3.56,4.62,4.62,0,0,1-3.56,1.53H889.46v14.23H927.6A18.2,18.2,0,0,0,941,352.83Z"/><path class="cls-3" d="M1508.8,352.83a18,18,0,0,0,5.76-13.39,17.71,17.71,0,0,0-5.76-13.38,18,18,0,0,0-13.39-5.77h-19.66a5.27,5.27,0,0,1-3.56-1.52,4.63,4.63,0,0,1-1.52-3.56,4.9,4.9,0,0,1,1.52-3.56,4.65,4.65,0,0,1,3.56-1.52h38.64V295.89h-38.64a18.24,18.24,0,0,0-13.38,5.76A18,18,0,0,0,1456.6,315a18.25,18.25,0,0,0,5.77,13.39,18,18,0,0,0,13.38,5.76h19.66a5.31,5.31,0,0,1,3.56,1.52,4.89,4.89,0,0,1,1.53,3.56,5.26,5.26,0,0,1-1.53,3.56,4.62,4.62,0,0,1-3.56,1.53h-38.14v14.23h38.14A18.24,18.24,0,0,0,1508.8,352.83Z"/><path class="cls-3" d="M31.89,159.79H51.55a5.29,5.29,0,0,1,3.55,1.52,4.89,4.89,0,0,1,1.53,3.56,5.26,5.26,0,0,1-1.53,3.56A4.59,4.59,0,0,1,51.55,170H13.41v14.23H51.55a18.22,18.22,0,0,0,13.38-5.76A18,18,0,0,0,70.69,165a17.68,17.68,0,0,0-5.76-13.38,17.94,17.94,0,0,0-13.38-5.76H31.89a5.28,5.28,0,0,1-3.56-1.53,4.61,4.61,0,0,1-1.53-3.56,4.89,4.89,0,0,1,1.53-3.56,4.63,4.63,0,0,1,3.56-1.52H70.52V121.49H31.89a18.26,18.26,0,0,0-13.39,5.76,18,18,0,0,0-5.76,13.39A18.24,18.24,0,0,0,18.5,154,18,18,0,0,0,31.89,159.79Z"/><path class="cls-3" d="M599.7,159.79h19.66a5.33,5.33,0,0,1,3.56,1.52,4.92,4.92,0,0,1,1.52,3.56,5.29,5.29,0,0,1-1.52,3.56,4.62,4.62,0,0,1-3.56,1.53H581.22v14.23h38.14a18.2,18.2,0,0,0,13.38-5.76A18,18,0,0,0,638.51,165a17.69,17.69,0,0,0-5.77-13.38,17.94,17.94,0,0,0-13.38-5.76H599.7a5.28,5.28,0,0,1-3.56-1.53,4.6,4.6,0,0,1-1.52-3.56,4.88,4.88,0,0,1,1.52-3.56,4.63,4.63,0,0,1,3.56-1.52h38.64V121.49H599.7a18.28,18.28,0,0,0-13.39,5.76,18,18,0,0,0-5.76,13.39A18.28,18.28,0,0,0,586.31,154,18,18,0,0,0,599.7,159.79Z"/><path class="cls-3" d="M1167.51,159.79h19.66a5.31,5.31,0,0,1,3.56,1.52,4.92,4.92,0,0,1,1.52,3.56,5.25,5.25,0,0,1-1.52,3.56,4.62,4.62,0,0,1-3.56,1.53H1149v14.23h38.14a18.24,18.24,0,0,0,13.39-5.76,18,18,0,0,0,5.76-13.39,17.71,17.71,0,0,0-5.76-13.38,18,18,0,0,0-13.39-5.76h-19.66a5.28,5.28,0,0,1-3.56-1.53,4.63,4.63,0,0,1-1.52-3.56,4.92,4.92,0,0,1,1.52-3.56,4.65,4.65,0,0,1,3.56-1.52h38.64V121.49h-38.64a18.28,18.28,0,0,0-13.39,5.76,18,18,0,0,0-5.76,13.39,18.28,18.28,0,0,0,5.76,13.39A18,18,0,0,0,1167.51,159.79Z"/><path class="cls-3" d="M1735.32,159.79H1755a5.31,5.31,0,0,1,3.56,1.52,4.89,4.89,0,0,1,1.53,3.56,5.26,5.26,0,0,1-1.53,3.56A4.61,4.61,0,0,1,1755,170h-38.13v14.23H1755a18.24,18.24,0,0,0,13.39-5.76,18,18,0,0,0,5.76-13.39,17.68,17.68,0,0,0-5.76-13.38A18,18,0,0,0,1755,145.9h-19.66a5.25,5.25,0,0,1-3.55-1.53,4.61,4.61,0,0,1-1.53-3.56,4.89,4.89,0,0,1,1.53-3.56,4.61,4.61,0,0,1,3.55-1.52H1774V121.49h-38.64a18.26,18.26,0,0,0-13.38,5.76,18,18,0,0,0-5.76,13.39,18.24,18.24,0,0,0,5.76,13.39A18,18,0,0,0,1735.32,159.79Z"/><path class="cls-3" d="M294.07,535.09a13.08,13.08,0,0,0,5.76,1.85Z"/></g></svg>