<svg id="图层_1" data-name="图层 1" xmlns="http://www.w3.org/2000/svg" viewBox="0 0 100 100"><defs><style>.cls-1{fill:#fcd462;}.cls-2{fill:#f6f6f6;}.cls-3{fill:#4d5cf2;}</style></defs><title>fileL</title><path class="cls-1" d="M35,5.48,19.89,20.59V95.86a2.66,2.66,0,0,0,2.66,2.66H85.11V8.14a2.66,2.66,0,0,0-2.66-2.66Z"/><path class="cls-2" d="M30,1.48,14.89,16.59V91.86a2.66,2.66,0,0,0,2.66,2.66H80.11V4.14a2.66,2.66,0,0,0-2.66-2.66Z"/><polygon class="cls-3" points="30 16.59 30 1.48 14.89 16.59 30 16.59"/><rect class="cls-3" x="36.37" y="13.48" width="37.21" height="3.1"/><rect class="cls-3" x="21.42" y="26.67" width="52.16" height="3.1"/><rect class="cls-3" x="21.42" y="39.86" width="52.16" height="3.1"/><rect class="cls-3" x="21.42" y="53.04" width="51.58" height="3.1"/><rect class="cls-3" x="21.42" y="66.23" width="51.58" height="3.1"/><rect class="cls-3" x="21.42" y="79.41" width="51.58" height="3.1"/></svg>