<svg id="图层_1" data-name="图层 1" xmlns="http://www.w3.org/2000/svg" viewBox="0 0 100 100"><defs><style>.cls-1{fill:#fcd462;}.cls-2{fill:#f6f6f6;}.cls-3{fill:#4d5cf2;}.cls-4{fill:#dc8744;}.cls-5{fill:#f6c358;}</style></defs><title>fileShareL</title><path class="cls-1" d="M35,5.48,19.85,20.59V95.86a2.66,2.66,0,0,0,2.66,2.66H85.06V8.14A2.66,2.66,0,0,0,82.4,5.48Z"/><path class="cls-2" d="M30,1.48,14.85,16.59V91.86a2.66,2.66,0,0,0,2.66,2.66H80.06V4.14A2.66,2.66,0,0,0,77.4,1.48Z"/><path class="cls-3" d="M95.29,98.52H50.83a1.66,1.66,0,0,1-1.64-1.88L50,90.93a9.89,9.89,0,0,1,6.89-7.79l16.24-4.9,16.21,4.9a9.88,9.88,0,0,1,6.88,7.79l.77,5.71A1.66,1.66,0,0,1,95.29,98.52Z"/><path class="cls-1" d="M81.39,83.5c0,5.08-16.66,5.08-16.66,0l2.73-7.43h11.2Z"/><path class="cls-4" d="M84.09,66.33a2,2,0,0,1-.26.7l-.07.08a6.34,6.34,0,0,0-.32-2.9,15.85,15.85,0,0,0-2-3.12,1.17,1.17,0,0,0-.6-.48,1.32,1.32,0,0,0-.72.15,6.22,6.22,0,0,1-5.66-.9,18.54,18.54,0,0,1-4.11-4.27c-2.25,1-4.6,2.18-6,4.22a14.12,14.12,0,0,0-1.76,4.43,6.05,6.05,0,0,0-.17,1.88,4.77,4.77,0,0,1-.63-1.5,8.64,8.64,0,0,1-.37-3.91,17.35,17.35,0,0,1,2.84-6.44A7.29,7.29,0,0,1,66,52.09a6.26,6.26,0,0,1,2.43-.86,35.16,35.16,0,0,1,4.92-.46,10.15,10.15,0,0,1,5,.72A10.74,10.74,0,0,1,81.25,54a13.76,13.76,0,0,1,3.21,4.6C85.32,61.06,84.71,63.78,84.09,66.33Z"/><path class="cls-5" d="M83.75,67.11c0,.21,0,.41,0,.62C83.74,73,79,79.31,73.08,79.31S62.42,73,62.42,67.73c0-.56-.05-1.09-.07-1.61a6.05,6.05,0,0,1,.17-1.88,14.12,14.12,0,0,1,1.76-4.43c1.42-2,3.77-3.17,6-4.22a18.54,18.54,0,0,0,4.11,4.27,6.22,6.22,0,0,0,5.66.9,1.32,1.32,0,0,1,.72-.15,1.17,1.17,0,0,1,.6.48,15.85,15.85,0,0,1,2,3.12A6.2,6.2,0,0,1,83.75,67.11Z"/><polygon class="cls-3" points="29.95 16.59 29.95 1.48 14.85 16.59 29.95 16.59"/><rect class="cls-3" x="36.33" y="13.48" width="37.21" height="3.1"/><rect class="cls-3" x="21.37" y="26.67" width="52.16" height="3.1"/><rect class="cls-3" x="21.37" y="39.86" width="52.16" height="3.1"/><rect class="cls-3" x="21.37" y="53.04" width="39.48" height="3.1"/><rect class="cls-3" x="21.37" y="66.23" width="32.28" height="3.1"/><rect class="cls-3" x="21.37" y="79.41" width="24.23" height="3.1"/></svg>