<?xml version="1.0" encoding="utf-8"?>
<!-- Generator: Adobe Illustrator 16.0.0, SVG Export Plug-In . SVG Version: 6.00 Build 0)  -->
<!DOCTYPE svg PUBLIC "-//W3C//DTD SVG 1.1//EN" "http://www.w3.org/Graphics/SVG/1.1/DTD/svg11.dtd">
<svg version="1.1" id="图层_1" xmlns="http://www.w3.org/2000/svg" xmlns:xlink="http://www.w3.org/1999/xlink" x="0px" y="0px"
	 width="1000px" height="200px" viewBox="0 0 1000 200" enable-background="new 0 0 1000 200" xml:space="preserve">
<g id="图层_x0020_1">
	<g id="_179286632">
		<g>
			<g>
				<polygon id="_179288072" fill="#333333" points="94.745,83.367 62.37,83.367 62.37,154.94 40.874,154.94 40.874,83.367 
					8.5,83.367 8.5,62.12 94.745,62.12 				"/>
				<path id="_179287952" fill="#333333" d="M190.091,154.94h-29.085l-27.062-29.333V98.039h28.072c2.278,0,3.794-0.762,5.313-2.278
					c1.265-1.265,2.276-3.287,2.276-5.312c0-2.278-0.759-3.795-2.276-5.31c-1.265-1.267-3.288-2.278-5.313-2.278h-36.669v8.851
					v39.202v23.521H104.1V62.12h57.666c7.584,0,14.415,2.782,19.979,8.6c5.817,5.817,8.6,12.395,8.6,19.982
					c0,7.586-2.782,14.417-8.6,19.981c-5.815,5.817-12.394,8.6-19.979,8.6h-5.06L190.091,154.94L190.091,154.94z"/>
				<path id="_179287592" fill="#333333" d="M283.921,108.152c0,12.644-4.046,23.27-12.392,32.373
					c-8.6,9.104-18.466,13.657-30.604,13.657c-12.394,0-22.51-4.554-30.603-13.657c-8.092-9.104-12.392-19.979-12.392-32.373V62.12
					h21.246v46.032c0,6.576,2.276,12.644,6.321,17.455c4.047,5.055,9.612,7.334,15.682,7.334c6.32,0,11.635-2.533,15.682-7.334
					c4.044-5.061,6.069-10.879,6.069-17.455V62.12h21.246L283.921,108.152L283.921,108.152z"/>
				<path id="_179287880" fill="#333333" d="M381.293,126.361c0,7.588-2.782,14.414-8.599,19.979c-5.818,5.818-12.395,8.6-19.98,8.6
					h-57.667v-21.246h57.667c2.276,0,3.792-0.756,5.312-2.275c1.265-1.262,2.279-3.289,2.279-5.313c0-2.021-0.762-3.793-2.279-5.311
					c-1.265-1.263-3.287-2.275-5.312-2.275h-29.337c-7.589,0-14.417-2.784-19.981-8.599c-5.816-5.82-8.599-12.395-8.599-19.982
					c0-7.583,2.783-14.415,8.599-19.98c5.818-5.815,12.392-8.599,19.981-8.599h57.663v21.245h-57.663
					c-2.279,0-3.795,0.762-5.312,2.278c-1.518,1.517-2.278,3.288-2.278,5.312c0,2.279,0.761,3.795,2.278,5.31
					c1.265,1.267,3.285,2.278,5.312,2.278h29.337c7.586,0,14.417,2.784,19.98,8.6C378.511,111.69,381.293,118.773,381.293,126.361z"
					/>
				<polygon id="_179287640" fill="#333333" points="464.248,82.606 431.875,82.606 431.875,154.183 410.63,154.183 410.63,82.606 
					378.257,82.606 378.257,61.363 464.248,61.363 				"/>
				<path id="_179288096" fill="#333333" d="M651.908,154.94h-33.13c-12.646,0-23.522-4.552-32.881-13.402
					c-9.104-9.105-13.403-19.981-13.403-32.88c0-12.898,4.553-23.518,13.403-32.878c9.105-9.104,19.98-13.404,32.881-13.404h33.13
					v20.991h-33.13c-7.083,0-13.152,2.528-17.453,7.334c-5.056,5.056-7.333,10.875-7.333,17.451c0,7.08,2.532,13.154,7.333,17.455
					c5.06,5.055,10.879,7.334,17.453,7.334h33.13V154.94L651.908,154.94z"/>
				<polygon id="_179287976" fill="#333333" points="742.707,154.94 663.038,154.94 663.038,62.12 742.707,62.12 742.707,83.367 
					684.536,83.367 684.536,97.782 729.553,97.782 729.553,119.282 684.536,119.282 684.536,133.694 742.707,133.694 				"/>
				<polygon id="_179287856" fill="#333333" points="839.57,154.94 785.19,154.94 775.837,133.694 806.185,133.694 790.002,96.771 
					764.201,154.94 740.175,154.94 740.175,133.694 749.532,133.694 781.147,62.12 798.346,62.12 				"/>
				<polygon id="_179288240" fill="#333333" points="936.942,154.94 915.696,154.94 872.195,102.587 872.195,154.94 850.698,154.94 
					850.698,62.12 872.195,62.12 915.696,114.729 915.696,62.12 936.942,62.12 				"/>
			</g>
		</g>
	</g>
</g>
<text transform="matrix(1 0 0 1 944.5322 90.3408)" fill="#040000" font-family="'MicrosoftYaHeiUI'" font-size="46.6578">®</text>
<g>
	<g id="图层_1-2">
		<g id="_179286632_1_">
			<path id="_179288216_1_" fill="#333333" d="M551.755,145.077c-8.851,8.598-20.99,13.405-33.384,13.149
				c-12.646,0-25.288-4.805-34.648-14.161c-9.103-8.853-14.417-21.498-14.163-34.648c0-12.646,4.804-25.292,14.163-34.648
				l0.253-0.253c11.632-3.034,27.061-0.252,36.166,8.599h-2.529c-6.829,0-13.657,2.781-18.21,7.587
				c-4.805,4.803-7.586,11.381-7.586,18.21c0,4.804,1.265,9.861,4.047,14.162v0.504C511.037,145.837,533.545,153.93,551.755,145.077
				L551.755,145.077z"/>
			<path id="_179287712_1_" fill="#FFFFFF" d="M566.677,109.163c0,2.276,0,4.553-0.252,6.83
				c-1.013,10.368-6.07,19.729-13.405,27.063c-11.381,3.539-27.061,1.011-36.417-7.335h1.769c7.086,0,13.914-2.78,18.969-7.59
				c4.805-4.804,7.586-11.378,7.586-18.209c0-2.275-0.252-4.299-0.757-6.828c-0.506-2.782-1.771-5.313-3.541-7.839
				c-0.76-1.012-1.265-2.277-2.275-3.287l-1.014-1.771c-13.911-17.705-33.891-24.787-50.332-17.705
				c8.6-7.586,19.729-11.635,31.362-11.381c12.648-0.254,25.291,4.805,34.65,13.911c0.505,0.759,1.266,1.265,1.77,1.769
				c2.531,2.782,4.553,5.818,6.578,8.853C565.16,93.484,566.932,101.321,566.677,109.163z"/>
			<path fill="#1BAA70" d="M516.603,130.66l-21.75-27.82l21.245,10.622l63.734-55.135L516.603,130.66z"/>
			<path fill="#333333" d="M552.771,75.526c-9.104-8.854-21.501-14.165-34.648-14.165c-11.381-0.251-22.514,3.795-31.364,11.381
				c16.186-7.081,36.42-0.252,50.331,17.452l0,0l16.186-14.163L552.771,75.526z"/>
			<path fill="#333333" d="M560.607,85.388l-15.934,18.465c0.252,1.77,0.507,3.794,0.507,5.818c0,7.08-2.783,13.653-7.588,18.458
				c-5.311,4.809-11.887,7.591-18.968,7.591h-1.769l0,0c9.103,8.345,25.036,10.875,36.418,7.334
				c7.333-7.085,12.138-16.949,13.402-27.064c0.255-2.279,0.507-4.555,0.255-6.828c0-7.841-1.771-15.427-5.313-22.511
				C561.113,86.401,560.607,85.642,560.607,85.388z"/>
		</g>
	</g>
</g>
</svg>
