<?xml version="1.0" encoding="utf-8"?>
<!-- Generator: Adobe Illustrator 22.0.1, SVG Export Plug-In . SVG Version: 6.00 Build 0)  -->
<svg version="1.1" id="图层_1" xmlns="http://www.w3.org/2000/svg" xmlns:xlink="http://www.w3.org/1999/xlink" x="0px" y="0px"
	 viewBox="0 0 800 200" style="enable-background:new 0 0 800 200;" xml:space="preserve">
<style type="text/css">
	.st0{fill:#333333;}
</style>
<g>
	<polygon id="_179288072" class="st0" points="112.7,75.6 80.4,75.6 80.4,147.2 58.9,147.2 58.9,75.6 26.5,75.6 26.5,54.3 
		112.7,54.3 	"/>
	<path id="_179287952" class="st0" d="M208.1,147.2H179l-27.1-29.3V90.3H180c2.3,0,3.8-0.8,5.3-2.3c1.3-1.3,2.3-3.3,2.3-5.3
		c0-2.3-0.8-3.8-2.3-5.3c-1.3-1.3-3.3-2.3-5.3-2.3h-36.7v8.9v39.2v23.5h-21.2V54.3h57.7c7.6,0,14.4,2.8,20,8.6
		c5.8,5.8,8.6,12.4,8.6,20c0,7.6-2.8,14.4-8.6,20c-5.8,5.8-12.4,8.6-20,8.6h-5.1L208.1,147.2L208.1,147.2z"/>
	<path id="_179287592" class="st0" d="M301.9,100.4c0,12.6-4,23.3-12.4,32.4c-8.6,9.1-18.5,13.7-30.6,13.7
		c-12.4,0-22.5-4.6-30.6-13.7c-8.1-9.1-12.4-20-12.4-32.4v-46h21.2v46c0,6.6,2.3,12.6,6.3,17.5c4,5.1,9.6,7.3,15.7,7.3
		c6.3,0,11.6-2.5,15.7-7.3c4-5.1,6.1-10.9,6.1-17.5v-46h21.2L301.9,100.4L301.9,100.4z"/>
	<path id="_179287880" class="st0" d="M399.3,118.6c0,7.6-2.8,14.4-8.6,20c-5.8,5.8-12.4,8.6-20,8.6h-57.7v-21.2h57.7
		c2.3,0,3.8-0.8,5.3-2.3c1.3-1.3,2.3-3.3,2.3-5.3c0-2-0.8-3.8-2.3-5.3c-1.3-1.3-3.3-2.3-5.3-2.3h-29.3c-7.6,0-14.4-2.8-20-8.6
		c-5.8-5.8-8.6-12.4-8.6-20c0-7.6,2.8-14.4,8.6-20c5.8-5.8,12.4-8.6,20-8.6H399v21.2h-57.7c-2.3,0-3.8,0.8-5.3,2.3
		c-1.5,1.5-2.3,3.3-2.3,5.3c0,2.3,0.8,3.8,2.3,5.3c1.3,1.3,3.3,2.3,5.3,2.3h29.3c7.6,0,14.4,2.8,20,8.6
		C396.5,103.9,399.3,111,399.3,118.6z"/>
	<polygon id="_179287640" class="st0" points="482.3,74.8 449.9,74.8 449.9,146.4 428.6,146.4 428.6,74.8 396.3,74.8 396.3,53.6 
		482.3,53.6 	"/>
	<polygon id="_179287856" class="st0" points="619.8,53.6 637,53.6 668.6,125.2 678,125.2 678,146.4 654,146.4 628.2,88.2 
		612,125.2 642.3,125.2 633,146.4 578.6,146.4 	"/>
	<polygon id="_179288240_1_" class="st0" points="578.4,146.4 557.1,146.4 513.6,94.1 513.6,146.4 492.1,146.4 492.1,53.6 
		513.6,53.6 557.1,106.2 557.1,53.6 578.4,53.6 	"/>
	<path id="_179287880_2_" class="st0" d="M763.5,117.8c0,7.6-2.8,14.4-8.6,20c-5.8,5.8-12.4,8.6-20,8.6h-57.7v-21.2h57.7
		c2.3,0,3.8-0.8,5.3-2.3c1.3-1.3,2.3-3.3,2.3-5.3c0-2-0.8-3.8-2.3-5.3c-1.3-1.3-3.3-2.3-5.3-2.3h-29.3c-7.6,0-14.4-2.8-20-8.6
		c-5.8-5.8-8.6-12.4-8.6-20c0-7.6,2.8-14.4,8.6-20c5.8-5.8,12.4-8.6,20-8.6h57.7v21.2h-57.7c-2.3,0-3.8,0.8-5.3,2.3
		c-1.5,1.5-2.3,3.3-2.3,5.3c0,2.3,0.8,3.8,2.3,5.3c1.3,1.3,3.3,2.3,5.3,2.3h29.3c7.6,0,14.4,2.8,20,8.6
		C760.7,103.2,763.5,110.2,763.5,117.8z"/>
</g>
</svg>
